#!OML:ASF F:\VICON\USERDATA\INSTALL\rory3\rory3.ASF
:FULLY-SPECIFIED
:DEGREES
136
root 4.97733 17.8808 -4.32729 -3.02232 2.40463 0.440254
lowerback 9.03811 -2.23241 -2.74483
upperback 0.834003 -3.14794 2.23212
thorax -3.92181 -1.50219 4.25006
lowerneck -15.8299 -2.3373 -2.12206
upperneck 21.4782 -2.53101 -0.777925
head 9.40786 -1.44569 -0.235685
rclavicle 2.30093e-014 1.43125e-014
rhumerus -38.3875 -35.9211 -65.5633
rradius 15.1861
rwrist 20.4448
rhand -18.2289 20.1267
rfingers 7.12502
rthumb 8.04938 -9.69998
lclavicle 2.30093e-014 1.43125e-014
lhumerus -27.3918 -3.36773 81.4961
lradius 35.6091
lwrist 5.9052
lhand -28.9166 29.4475
lfingers 7.12502
lthumb -2.2712 59.4152
rfemur -26.2728 5.51561 21.2821
rtibia 26.3363
rfoot 1.04904 -5.20968
rtoes 0.90906
lfemur 15.2751 -3.1042 -24.1617
ltibia 29.8237
lfoot -1.77952 -13.1268
ltoes -16.8352
137
root 4.95838 17.9359 -4.10773 -3.10595 2.22817 0.0984522
lowerback 9.01499 -2.18816 -2.52119
upperback 0.778764 -3.06177 2.33645
thorax -3.98039 -1.46019 4.22405
lowerneck -16.0508 -2.27821 -1.93504
upperneck 21.6937 -2.45133 -0.944819
head 9.51873 -1.41312 -0.319065
rclavicle -7.45443e-017 -4.77083e-015
rhumerus -39.093 -37.1638 -64.2994
rradius 14.8708
rwrist 21.7988
rhand -17.7198 20.4827
rfingers 7.12502
rthumb 8.54074 -9.32461
lclavicle -7.45443e-017 -4.77083e-015
lhumerus -27.7475 -3.19537 81.5924
lradius 34.9417
lwrist 6.11461
lhand -28.929 28.6491
lfingers 7.12502
lthumb -2.28317 58.6167
rfemur -25.7389 5.23521 21.9888
rtibia 26.8129
rfoot 0.951381 -4.90338
rtoes 2.58537
lfemur 13.9839 -2.50958 -23.4458
ltibia 31.8338
lfoot 1.53728 -14.0054
ltoes -19.1307
138
root 4.93269 17.9509 -3.88929 -3.31199 2.24171 -0.403038
lowerback 9.00662 -2.24811 -2.29567
upperback 0.740065 -3.10968 2.5507
thorax -4.01187 -1.48518 4.32766
lowerneck -16.075 -2.22126 -2.00323
upperneck 21.8214 -2.37006 -0.875271
head 9.56972 -1.37386 -0.274754
rclavicle 3.18055e-015 -3.97569e-015
rhumerus -39.8544 -38.3273 -62.9253
rradius 14.4866
rwrist 23.2614
rhand -17.4393 20.8878
rfingers 7.12502
rthumb 8.81142 -8.90825
lclavicle 3.18055e-015 -3.97569e-015
lhumerus -28.4275 -2.78976 81.6643
lradius 34.7758
lwrist 5.86739
lhand -28.4876 28.5497
lfingers 7.12502
lthumb -1.8568 58.5214
rfemur -25.1528 5.10889 22.828
rtibia 27.4438
rfoot 0.665413 -4.65209
rtoes 4.9344
lfemur 13.4197 -2.43127 -22.4914
ltibia 33.9592
lfoot 5.31831 -15.6775
ltoes -18.0148
139
root 4.91187 17.9528 -3.67322 -3.50253 2.40725 -0.605729
lowerback 8.94447 -2.30682 -2.29062
upperback 0.704917 -3.18269 2.64386
thorax -4.00227 -1.52078 4.42864
lowerneck -15.8999 -2.28664 -1.9834
upperneck 21.7439 -2.44639 -0.981074
head 9.5086 -1.41968 -0.321487
rclavicle -4.12478e-014 1.98785e-014
rhumerus -40.5554 -39.3924 -61.6671
rradius 14.1842
rwrist 24.3646
rhand -17.148 21.2613
rfingers 7.12502
rthumb 9.09251 -8.52269
lclavicle -4.12478e-014 1.98785e-014
lhumerus -29.1306 -2.56238 81.7773
lradius 34.7693
lwrist 5.53216
lhand -27.1566 31.1531
lfingers 7.12502
lthumb -0.571294 61.1321
rfemur -24.5886 4.91978 23.2683
rtibia 28.1131
rfoot 0.237843 -4.19724
rtoes 8.13798
lfemur 12.9252 -2.40826 -21.8729
ltibia 36.2405
lfoot 6.71821 -16.6038
ltoes -24.6041
140
root 4.89091 17.9646 -3.46187 -3.71505 2.59546 -0.596013
lowerback 8.93288 -2.39419 -2.60096
upperback 0.723449 -3.32706 2.72487
thorax -3.94078 -1.58886 4.70386
lowerneck -15.7983 -2.20024 -1.8726
upperneck 21.6742 -2.31405 -1.1634
head 9.46074 -1.36951 -0.383936
rclavicle 3.46879e-014 -5.56597e-015
rhumerus -40.3771 -38.5317 -62.0806
rradius 14.4429
rwrist 23.1575
rhand -16.1928 22.1499
rfingers 7.12502
rthumb 10.0142 -7.59184
lclavicle 3.46879e-014 -5.56597e-015
lhumerus -29.7246 -2.19696 81.8601
lradius 34.6317
lwrist 5.50356
lhand -27.692 28.5734
lfingers 7.12502
lthumb -1.08847 58.5504
rfemur -23.9601 4.69116 23.4996
rtibia 28.7698
rfoot -0.251753 -4.03962
rtoes 9.64532
lfemur 12.0225 -2.2212 -21.4954
ltibia 38.6197
lfoot 9.76498 -18.0689
ltoes -19.9943
141
root 4.86671 17.9849 -3.25349 -3.89984 2.73777 -0.807535
lowerback 9.05223 -2.41324 -2.59663
upperback 0.607646 -3.35016 2.79264
thorax -4.12231 -1.59339 4.78707
lowerneck -15.6917 -2.16853 -1.77995
upperneck 21.8414 -2.28083 -1.2284
head 9.49711 -1.3548 -0.41786
rclavicle -4.45526e-014 6.36111e-015
rhumerus -40.428 -37.6043 -62.5154
rradius 14.7498
rwrist 21.7699
rhand -15.9151 22.3814
rfingers 7.12502
rthumb 10.2821 -7.34731
lclavicle -4.45526e-014 6.36111e-015
lhumerus -30.5251 -2.30884 82.0232
lradius 34.4789
lwrist 5.73145
lhand -28.9506 25.0763
lfingers 7.12502
lthumb -2.30405 55.0436
rfemur -23.2373 4.80665 23.935
rtibia 29.2348
rfoot -0.713717 -4.37104
rtoes 11.0516
lfemur 10.7559 -2.05546 -20.8716
ltibia 41.0846
lfoot 12.8413 -18.6304
ltoes -12.9659
142
root 4.84218 18.018 -3.04957 -4.0551 2.88039 -1.31906
lowerback 9.2374 -2.40595 -2.24651
upperback 0.517483 -3.30076 2.89629
thorax -4.33862 -1.56743 4.70722
lowerneck -15.7793 -2.27015 -1.70825
upperneck 21.9545 -2.44767 -1.1938
head 9.5527 -1.423 -0.441466
rclavicle -4.59193e-014 3.02153e-014
rhumerus -40.4717 -37.0387 -62.9371
rradius 15.112
rwrist 20.6519
rhand -15.7936 21.9265
rfingers 7.12502
rthumb 10.3993 -7.79632
lclavicle -4.59193e-014 3.02153e-014
lhumerus -30.9245 -2.65095 82.1682
lradius 34.0321
lwrist 5.70663
lhand -28.5822 25.4986
lfingers 7.12502
lthumb -1.9482 55.4694
rfemur -22.4826 5.0156 24.7105
rtibia 29.585
rfoot -1.35839 -4.65888
rtoes 11.3176
lfemur 9.31647 -2.0547 -19.9586
ltibia 43.6564
lfoot 16.1733 -19.7218
ltoes -8.80861
